<?xml version="1.0" standalone="no"?>
<!DOCTYPE svg PUBLIC "-//W3C//DTD SVG 20010904//EN"
 "http://www.w3.org/TR/2001/REC-SVG-20010904/DTD/svg10.dtd">
<svg version="1.0" xmlns="http://www.w3.org/2000/svg"
 width="16.000000pt" height="16.000000pt" viewBox="0 0 16.000000 16.000000"
 preserveAspectRatio="xMidYMid meet">
<metadata>
Created by potrace 1.11, written by Peter Selinger 2001-2013
</metadata>
<g transform="translate(0.000000,16.000000) scale(0.006154,-0.006154)"
fill="#000000" stroke="none">
<path d="M310 1305 l0 -925 180 0 180 0 0 344 0 343 136 0 136 0 28 -51 c16
-28 46 -83 67 -122 21 -39 92 -170 158 -292 l120 -222 193 0 c105 0 192 2 192
5 0 3 -33 65 -73 137 -41 73 -90 162 -109 198 -33 61 -52 96 -118 215 -15 28
-42 76 -59 107 l-31 57 46 21 c26 11 48 20 51 20 2 0 30 18 62 39 98 67 170
163 208 280 22 67 26 251 8 331 -51 220 -217 375 -455 424 -60 12 -157 15
-497 16 l-423 0 0 -925z m873 580 c56 -20 110 -69 133 -122 26 -58 24 -196 -3
-248 -41 -78 -102 -118 -203 -131 -44 -6 -325 -9 -417 -5 l-23 1 0 265 0 265
233 -4 c189 -3 241 -7 280 -21z"/>
<path d="M1892 750 c-4 -3 -8 -87 -7 -187 l0 -183 198 0 197 0 -2 187 -3 188
-188 0 c-103 0 -191 -2 -195 -5z"/>
</g>
</svg>
